<svg xmlns="http://www.w3.org/2000/svg" viewBox="0 0 54 54">
  <!-- Dark background -->
  <rect width="54" height="54" rx="8" fill="#0b0e17"/>
  <!-- Blue liquid (lower flask area) -->
  <path d="M11,32 Q9,42 10,51 Q10,53 13,53 L41,53 Q44,53 44,51 Q45,42 43,32 Z" fill="#4a7fc1"/>
  <!-- Dark upper body (neck + shoulder, covers liquid above fill line) -->
  <path d="M22,3 L32,3 L32,17 Q42,21 43,32 L11,32 Q12,21 22,17 Z" fill="#0b0e17"/>
  <!-- Flask outline -->
  <path d="M22,3 L32,3 L32,17 Q46,23 47,51 Q47,53 44,53 L10,53 Q7,53 7,51 Q8,23 22,17 Z" fill="none" stroke="#ffffff" stroke-width="2.5" stroke-linejoin="round" stroke-linecap="round"/>
</svg>
